<?xml version="1.0" encoding="UTF-8"?>
<svg version="1.1" viewBox="0 0 487.49 412.32" xmlns="http://www.w3.org/2000/svg">
 <g transform="translate(546.88 262.15)">
  <g transform="translate(1041.3 -838.24)" stroke-width="2">
   <path d="m-1571.4 654.48-14.931-11.316 21.502-12.285 146.35-4.4543 23.423 11.473z" fill="#fff" stroke="#000"/>
   <path d="m-1253.5 818.81s82.68-107.86 81.68-109.86 3.5 5.6213 3.5 5.6213l-86.18 111.36z" fill="#fff" stroke="#000"/>
   <path d="m-1419.2 942.09-26.505-7.1947 0.6361-41.186 103.3-95.098 44.322-0.18928-7.512 34.621z" fill="#fff" stroke="#000"/>
   <path d="m-1554.7 692.6-25.427-11.878 8.7949-26.272 163.06-15.787 24.095 0.5604-12.702 30.104z" fill="#fff" stroke="#000"/>
   <path d="m-1372.6 971.77-37.773-1.5188 1.5431-37.181 106.79-101.67 31.286-4.6675z" fill="#fff" stroke="#000"/>
   <path d="m-1520.1 776.07-22.155-17.294 3.5924-26.285 160.06-42.089 24.024-1.9378-9.5163 31.257z" fill="#fff" stroke="#000"/>
   <path d="m-1536.2 736.17-22.155-17.294 3.5923-26.285 160.06-42.089 24.024-1.9378-9.5164 31.257z" fill="#fff" stroke="#000"/>
   <path d="m-1485.8 834.47-35.623-20.01 0.4439-36.539 147.17-58.748 30.232 3.5064-6.176 36.863z" fill="#fff" stroke="#000"/>
   <path d="m-1328.2 813.88 9.666-43.435-39.542-11.674-127.46 74.44 0.8921 38.781 42.451 19.043z" fill="#fff" stroke="#000"/>
   <path d="m-1380.8 987.63 35.15-27.504 85.491-118.41 14.298-43.119-111.47 151.37z" fill="#fff" stroke="#000"/>
   <path d="m-1529.9 677.51-35.761-17.295 16.885-30.65 193.65-4.2484z" fill="#fff" stroke="#000"/>
   <path d="m-1153.2 709.95c35.818-19.109 53.201-42.527 51.37-68.838 0.4808-5.4398-0.1068-9.0086-1.897-14.018-2.1152-5.9178-5.0928-11.957-8.6648-17.696-8.7688-12.586-14.382-18.75-22.784-24.364-19.247-12.861-51.669-10.748-85.882 11.044l1.8673 3.1337 64.121 107.61 1.8674 3.1337z" fill="#fff" stroke="#000"/>
   <path d="m-1357.6 625.49s126.25-18.75 125.25-20.75-0.75 4.25-0.75 4.25l-124 21.5z" fill="#fff" stroke="#000"/>
   <path d="m-1210.6 616.1c11.17-10.064 25.531-22.768 36.429-28.571 10.898-5.8037 18.904-7.1341 26.87-8.3062" fill="none" stroke="#000"/>
   <path d="m-1322.7 690.29s116.21-46.92 115.21-48.92 3.5 5.6213 3.5 5.6213l-119.71 50.42z" fill="#fff" stroke="#000"/>
   <path d="m-1294.4 740.5s105-70.444 104-72.444 3.5 5.6213 3.5 5.6213l-108.5 73.944z" fill="#fff" stroke="#000"/>
   <path d="m-1269.8 768.51s88.044-82.715 87.044-84.715 3.5 5.6213 3.5 5.6213l-91.544 86.215z" fill="#fff" stroke="#000"/>
   <path d="m-1335.6 656.41s116.92-32.253 115.92-34.253 3.5 5.6213 3.5 5.6213l-120.42 35.753z" fill="#fff" stroke="#000"/>
   <path d="m-1174.4 722.51c9.5195-7.3195-16.24-49.102-26.86-66.938-10.896-18.3-19.943-45.463-40.344-48.041l19.104-11.387c11.261-5.3043 26.451 25.71 41.161 49.76 16.387 26.791 33.804 56.828 28.591 65.027z"/>
   <path d="m-1171 668.21c6.349 8.8098 9.4083 15.341 13.088 24.475-4.3221 6.8064-8.7359 8.6688-13.852 8.9357-5.4968-7.2162-7.7487-15.653-13.712-25.417 2.7115-5.1292 8.7007-6.4365 14.476-7.9938z" fill="#fff" stroke="#000"/>
   <path d="m-1519 703.73-20.863-22.583 18.827-23.089 166.75-30.876 15.903 4.3168-7.5574 27.088z" fill="#fff" stroke="#000"/>
   <path d="m-1494.4 742.92-22.155-17.294 3.5923-26.285 160.06-42.089 24.024-1.9378-9.5164 31.257z" fill="#fff" stroke="#000"/>
   <path d="m-1456.7 801.27-35.623-20.01 0.4439-36.539 147.17-58.748 30.232 3.5064-6.176 36.863z" fill="#fff" stroke="#000"/>
   <path d="m-1290.2 779.1 9.666-43.435-39.542-11.674-127.46 74.44 0.8921 38.781 42.451 19.043z" fill="#fff" stroke="#000"/>
   <path d="m-1384.6 908.92-26.505-7.1947 0.6362-41.186 103.3-95.098 44.322-0.18928-7.5119 34.621z" fill="#fff" stroke="#000"/>
   <path d="m-1356.8 951.18-29.258-7.5188 1.5431-37.181 106.79-101.67 31.286-4.6675-9.8573 26.643z" fill="#fff" stroke="#000"/>
   <path d="m-1239.5 806.1 5.7526-6.8734c-16.164-67.186-51.26-128.36-103.25-176.69l-8.1461 1.3736c55.355 53.335 87.956 117.55 105.64 182.19zm29.863-38.945 3.9826-4.8581c-18.719-53.55-47.794-104.74-86.308-146.04l-7.6445 1.2576c42.018 44.951 70.538 97.155 89.969 149.64z" fill="#fff" stroke="#000"/>
  </g>
 </g>
</svg>
